 <svg  version="1.0" xmlns="http://www.w3.org/2000/svg"  width="100.000000pt" height="100.000000pt" viewBox="0 0 300.000000 296.000000"  preserveAspectRatio="xMidYMid meet">  <g transform="translate(0.000000,296.000000) scale(0.100000,-0.100000)" fill="#ffffff" stroke="none"> <path d="M1075 2143 c-11 -3 -28 -12 -37 -21 -17 -14 -18 -48 -18 -434 0 -488 -7 -458 103 -458 40 0 70 5 85 16 22 15 22 15 22 350 0 184 1 334 3 334 17 0 122 -37 160 -57 98 -49 199 -169 227 -268 7 -25 21 -50 32 -56 10 -5 49 -9 85 -7 75 3 65 -7 122 121 53 119 188 227 319 256 l42 9 0 -563 c0 -653 -11 -595 111 -595 45 0 80 5 87 12 9 9 12 171 12 668 0 766 12 693 -119 698 -205 9 -414 -88 -554 -257 l-28 -34 -67 70 c-98 103 -197 163 -324 199 -56 15 -229 27 -263 17z m257 -47 c135 -36 267 -124 350 -233 l46 -62 25 38 c119 180 382 303 592 276 l55 -6 0 -655 0 -654 -75 0 -75 0 0 584 0 584 -62 -14 c-154 -35 -288 -139 -353 -275 -19 -40 -35 -81 -35 -91 0 -16 -10 -18 -69 -18 l-69 0 -12 38 c-55 171 -224 320 -397 350 l-53 9 0 -348 0 -349 -75 0 -75 0 0 419 0 420 28 4 c47 9 195 -1 254 -17z"/> <path d="M767 2019 c-100 -66 -200 -199 -250 -333 -25 -68 -31 -100 -34 -196 -6 -141 10 -216 69 -339 55 -113 186 -248 295 -304 199 -103 439 -103 636 0 104 54 230 182 285 288 22 44 49 109 58 144 l18 64 -23 18 c-17 14 -40 19 -86 19 -75 0 -93 -13 -123 -87 -67 -168 -205 -278 -381 -303 -121 -17 -233 9 -339 78 -70 46 -117 102 -160 190 -30 63 -36 86 -40 166 -3 57 0 114 8 147 13 56 60 154 89 186 58 64 61 72 61 168 0 76 -3 95 -18 108 -17 16 -21 15 -65 -14z m13 -231 c-81 -102 -120 -208 -120 -327 0 -142 48 -259 146 -357 263 -265 706 -166 835 186 l20 55 78 0 78 0 -20 -65 c-52 -176 -180 -331 -337 -407 -250 -123 -534 -85 -733 97 -149 137 -217 290 -217 490 0 116 17 189 70 295 45 91 99 159 179 221 l56 44 3 -90 3 -90 -41 -52z"/> </g> </svg> 